# xmcd
#
# Track frame offsets:
#   150
#   14472
#   28662
#   46276
#   63526
#   78704
#   97708
#   116105
#   140869
#   153339
#   175692
#   196464
#   214077
#   230054
#   247932
#   263190
#
# Disc length: 3771 seconds
#
# Revision: 0
# Processed by: cddbd v1.5.2PL0 Copyright (c) Steve Scherf et al.
# Submitted via: uFREEDB ActiveX Control 1.5
#
DISCID=e00eb910
DTITLE=VARIOS - PEROLAS NATIVAS 4
DYEAR=1900
DGENRE=Country
TTITLE0=Contraponto
TTITLE1=Comparsão de Janeiro
TTITLE2=Mateando Solito
TTITLE3=Abre o Fole Tio Bilia
TTITLE4=No Império das Estâncias
TTITLE5=Paisagens de Fim de Inverno
TTITLE6=Um Grito de Alerta
TTITLE7=Pilares 
TTITLE8=Grongueira
TTITLE9=De Campo e Rio
TTITLE10=João Saudade
TTITLE11=Sou de Campo (Mano Velho)
TTITLE12=Repartindo a Tarecama
TTITLE13=Cabelos de Prata
TTITLE14=Lamento Costeiro
TTITLE15=De Jujo e de Flores
EXTD=
EXTT0=
EXTT1=
EXTT2=
EXTT3=
EXTT4=
EXTT5=
EXTT6=
EXTT7=
EXTT8=
EXTT9=
EXTT10=
EXTT11=
EXTT12=
EXTT13=
EXTT14=
EXTT15=
PLAYORDER=
